# xmcd
#
# Track frame offsets:
#	150
#	19862
#	40435
#	57450
#	83025
#	106865
#	123890
#	141500
#	161100
#	189150
#	207665
#	227812
#
# Disc length: 3185 seconds
#
# Revision: 1
# Processed by: cddbd v1.5.2PL0 Copyright (c) Steve Scherf et al.
# Submitted via: audiograbber 1.83.01
#
DISCID=a80c6f0c
DTITLE=Think Big - As One
DYEAR=1993
DGENRE=Rock
TTITLE0=Regret Nothing
TTITLE1=Hurricane
TTITLE2=As One
TTITLE3=Short and Delicious
TTITLE4=Missing You
TTITLE5=Sittin' in a Haze
TTITLE6=Bitch of Illusion
TTITLE7=Turn Around
TTITLE8=Wild Love
TTITLE9=Nightmare
TTITLE10=Hey You
TTITLE11=Prison
EXTD=
EXTT0=
EXTT1=
EXTT2=
EXTT3=
EXTT4=
EXTT5=
EXTT6=
EXTT7=
EXTT8=
EXTT9=
EXTT10=
EXTT11=
PLAYORDER=
